:FULLY-SPECIFIED
:FORCE-ALL-JOINTS-BE-3DOF
:DEGREES
204
root 4.87732 15.059 -25.4293 7.07764 -1.63086 5.70066
lfemur 7.76387 -1.25168 0.614201
ltibia 5.81595 0 0
lfoot -35.9075 -12.7284 0
ltoes 46.8864 0 0
rfemur -31.1628 -19.4668 -8.84644
rtibia 50.5057 0 0
rfoot -26.478 17.8656 0
rtoes 60.1521 0 0
lowerback -3.53686 -1.59159 -0.388914
upperback -0.572166 -2.01307 -7.7479
thorax 1.12633 -1.01101 -7.97579
lowerneck -11.6857 0.40345 6.8474
upperneck 3.78247 -0.661226 2.53792
head 3.29318 -0.100511 -0.41573
lclavicle 9.93923e-17 -1.27222e-14 0
lhumerus -58.9313 -46.763 115.811
lradius 54.0188 0 0
lwrist 26.8256 0 0
lhand 39.9977 30.8286 0
lfingers 7.12502 0 0
lthumb 62.3933 41.8241 0
rclavicle 9.93923e-17 -1.27222e-14 0
rhumerus -3.26601 -12.1528 -11.388
rradius 53.9006 0 0
rwrist -23.879 0 0
rhand -21.1893 -49.6806 0
rfingers 7.12502 0 0
rthumb 5.19161 -439.597 0
205
root 4.85591 15.0465 -25.4443 7.15076 -1.67354 5.63987
lfemur 7.62934 -1.53713 0.678634
ltibia 5.94251 -0 0
lfoot -36.1765 -12.2429 0.0163011
ltoes 46.9543 -0 0
rfemur -31.539 -19.7642 -8.63786
rtibia 50.8524 -0 0
rfoot -26.466 18.1566 -0.00415455
rtoes 60.2416 -0 0
lowerback -3.30649 -1.54322 -0.431743
upperback -0.602806 -1.96004 -7.69042
thorax 0.975739 -0.987769 -7.87601
lowerneck -11.5444 0.444074 6.94565
upperneck 3.75345 -0.603045 2.47342
head 3.25733 -0.0750771 -0.450432
lclavicle 9.70739e-17 -1.0404e-14 4.92156e-32
lhumerus -59.1486 -46.8173 116.1
lradius 54.0928 -0 0
lwrist 26.6523 0 0
lhand 39.7698 30.5866 -0.00764808
lfingers 7.12502 -0 0
lthumb 62.2106 41.8699 0.0031089
rclavicle 9.70739e-17 -1.0404e-14 4.92156e-32
rhumerus -3.26156 -16.604 -12.0011
rradius 53.1456 -0 0
rwrist -23.3775 0 0
rhand -27.4214 -52.8051 -0.689804
rfingers 7.12502 -0 0
rthumb 0.90712 -99.5381 1.51333
206
root 4.83322 15.0377 -25.4595 7.2359 -1.59964 5.58377
lfemur 7.42351 -2.06749 0.767464
ltibia 6.03816 -0 0
lfoot -36.3175 -11.8375 0.0236481
ltoes 47.233 -0 0
rfemur -31.8278 -20.0457 -8.43411
rtibia 51.1558 -0 0
rfoot -26.5386 18.3372 -0.0061731
rtoes 60.2954 -0 0
lowerback -3.03272 -1.51215 -0.493924
upperback -0.643174 -1.93292 -7.62126
thorax 0.787349 -0.977901 -7.75205
lowerneck -11.3884 0.480125 6.97582
upperneck 3.6927 -0.538615 2.41591
head 3.20785 -0.0484001 -0.470373
lclavicle -1.40251e-16 -7.06119e-15 1.60636e-31
lhumerus -59.3123 -46.7628 116.302
lradius 54.2111 -0 0
lwrist 26.4285 0 0
lhand 39.6231 30.3924 -0.0288167
lfingers 7.12502 -0 0
lthumb 62.108 41.9631 0.0139493
rclavicle -1.40251e-16 -7.06119e-15 1.60636e-31
rhumerus -3.8058 -20.8267 -12.6342
rradius 54.2303 -0 0
rwrist -23.4343 0 0
rhand -33.3462 -55.8428 -0.931445
rfingers 7.12502 -0 0
rthumb -2.75474 -124.13 4.41166
207
root 4.81 15.0326 -25.4752 7.32916 -1.43807 5.51553
lfemur 7.1278 -2.71105 0.898939
ltibia 6.17409 -0 0
lfoot -36.3166 -11.502 0.0238281
ltoes 47.6205 -0 0
rfemur -32.0428 -20.3007 -8.21807
rtibia 51.4091 -0 0
rfoot -26.6719 18.4239 -0.00628468
rtoes 60.3196 -0 0
lowerback -2.73111 -1.50112 -0.564669
upperback -0.68447 -1.93431 -7.53253
thorax 0.579373 -0.982234 -7.60234
lowerneck -11.23 0.519467 6.9511
upperneck 3.61002 -0.460937 2.3603
head 3.15066 -0.0165868 -0.479151
lclavicle -4.68276e-16 -2.99972e-15 2.66581e-31
lhumerus -59.4302 -46.6201 116.439
lradius 54.3655 -0 0
lwrist 26.1894 0 0
lhand 39.4588 30.2104 -0.0526941
lfingers 7.12502 -0 0
lthumb 61.993 42.1034 0.0266317
rclavicle -4.68276e-16 -2.99972e-15 2.66581e-31
rhumerus -4.7452 -24.5969 -13.269
rradius 56.6912 -0 0
rwrist -23.7843 0 0
rhand -38.7905 -58.6401 -0.899254
rfingers 7.12502 -0 0
rthumb -7.22555 -152.197 7.60664
208
root 4.78699 15.0307 -25.4915 7.4266 -1.21767 5.41822
lfemur 6.72356 -3.33572 1.09104
ltibia 6.4215 -0 0
lfoot -36.16 -11.2263 0.01899
ltoes 48.0148 -0 0
rfemur -32.1974 -20.5186 -7.97246
rtibia 51.6055 -0 0
rfoot -26.842 18.4333 -0.00507573
rtoes 60.3202 -0 0
lowerback -2.41721 -1.513 -0.633256
upperback -0.71793 -1.96679 -7.41631
thorax 0.369998 -1.00164 -7.42533
lowerneck -11.0818 0.569905 6.8847
upperneck 3.51519 -0.363001 2.30149
head 3.09163 0.0242573 -0.480369
lclavicle -7.42692e-16 1.47438e-15 3.16855e-31
lhumerus -59.5109 -46.4094 116.533
lradius 54.5478 -0 0
lwrist 25.9699 0 0
lhand 39.1779 30.0052 -0.0693609
lfingers 7.12502 -0 0
lthumb 61.7732 42.2903 0.0356717
rclavicle -7.42692e-16 1.47438e-15 3.16855e-31
rhumerus -5.91978 -27.6877 -13.9238
rradius 60.0649 -0 0
rwrist -24.1627 0 0
rhand -43.5608 -61.001 -0.715796
rfingers 7.12502 -0 0
rthumb -12.9306 177.533 9.4814
209
root 4.76491 15.0318 -25.5085 7.52415 -0.967234 5.27481
lfemur 6.19261 -3.80872 1.36038
ltibia 6.85159 -0 0
lfoot -35.8338 -11.0003 0.0115913
ltoes 48.3138 -0 0
rfemur -32.3054 -20.6884 -7.67984
rtibia 51.7382 -0 0
rfoot -27.025 18.3821 -0.00324073
rtoes 60.3032 -0 0
lowerback -2.10655 -1.55083 -0.689011
upperback -0.734846 -2.03299 -7.26472
thorax 0.177385 -1.03709 -7.21944
lowerneck -10.9563 0.639132 6.78987
upperneck 3.41797 -0.237794 2.23441
head 3.03665 0.0780213 -0.477628
lclavicle -8.19192e-16 6.05512e-15 2.86366e-31
lhumerus -59.5634 -46.1511 116.607
lradius 54.7499 -0 0
lwrist 25.8052 0 0
lhand 38.6813 29.7411 -0.0700466
lfingers 7.12502 -0 0
lthumb 61.3562 42.5233 0.0363645
rclavicle -8.19192e-16 6.05512e-15 2.86366e-31
rhumerus -7.15522 -29.8704 -14.6547
rradius 63.8877 -0 0
rwrist -24.3044 0 0
rhand -47.4462 -62.6973 -0.461807
rfingers 7.12502 -0 0
rthumb -18.8466 146.791 8.69303
210
root 4.74451 15.0358 -25.5262 7.61768 -0.71551 5.06817
lfemur 5.51843 -3.99642 1.72059
ltibia 7.53555 -0 0
lfoot -35.3238 -10.8139 0.00432139
ltoes 48.4156 -0 0
rfemur -32.3803 -20.7993 -7.32263
rtibia 51.8004 -0 0
rfoot -27.1968 18.2867 -0.0014022
rtoes 60.2747 -0 0
lowerback -1.81469 -1.61777 -0.721272
upperback -0.726599 -2.13561 -7.06989
thorax 0.0196593 -1.08969 -6.98313
lowerneck -10.8659 0.734715 6.67982
upperneck 3.32804 -0.0782988 2.15395
head 2.9916 0.148587 -0.474527
lclavicle -5.53469e-16 1.04365e-14 1.75034e-31
lhumerus -59.5965 -45.8651 116.684
lradius 54.9636 -0 0
lwrist 25.7301 0 0
lhand 37.8698 29.3823 -0.0480022
lfingers 7.12502 -0 0
lthumb 60.6493 42.802 0.0251542
rclavicle -5.53469e-16 1.04365e-14 1.75034e-31
rhumerus -8.26503 -30.9145 -15.5474
rradius 67.6962 -0 0
rwrist -23.9443 0 0
rhand -50.2223 -63.4766 -0.197995
rfingers 7.12502 -0 0
rthumb -23.087 117.598 5.13132
211
root 4.72652 15.0422 -25.545 7.70309 -0.491237 4.781
lfemur 4.68749 -3.76403 2.18034
ltibia 8.54457 0 0
lfoot -34.6162 -10.6571 0
ltoes 48.2181 0 0
rfemur -32.4355 -20.8402 -6.88321
rtibia 51.7854 0 0
rfoot -27.3336 18.1638 0
rtoes 60.2405 0 0
lowerback -1.55725 -1.71709 -0.719351
upperback -0.684689 -2.27746 -6.82404
thorax -0.0850889 -1.16073 -6.7149
lowerneck -10.8231 0.864097 6.56772
upperneck 3.25503 0.122515 2.05509
head 2.96236 0.239828 -0.474647
lclavicle 1.98785e-16 1.43125e-14 0
lhumerus -59.6189 -45.5717 116.787
lradius 55.1807 0 0
lwrist 25.7799 0 0
lhand 36.6442 28.8925 0
lfingers 7.12502 0 0
lthumb 59.5601 43.1265 0
rclavicle 1.98785e-16 1.43125e-14 0
rhumerus -9.06837 -30.5869 -16.6934
rradius 71.0267 0 0
rwrist -22.8175 0 0
rhand -51.6573 -63.0713 0
rfingers 7.12502 0 0
rthumb -24.1789 -628.433 0
212
root 4.71 15.0522 -25.5648 7.7749 -0.294844 4.3982
lfemur 3.69588 -3.10846 2.75565
ltibia 9.91958 -0 0
lfoot -33.5933 -10.6373 -0.0128788
ltoes 48.0967 -0 0
rfemur -32.4598 -20.7792 -6.34321
rtibia 51.6859 -0 0
rfoot -27.4428 17.9949 0.000842096
rtoes 60.1904 -0 0
lowerback -1.34146 -1.87973 -0.681731
upperback -0.596832 -2.49911 -6.5108
thorax -0.122834 -1.27008 -6.39885
lowerneck -10.8306 1.05891 6.44632
upperneck 3.19958 0.408485 1.92546
head 2.9508 0.372904 -0.478101
lclavicle 1.60593e-15 1.82163e-14 -2.68573e-31
lhumerus -59.648 -45.2216 116.907
lradius 55.4211 -0 0
lwrist 26.0751 0 0
lhand 34.7661 28.2336 0.0701584
lfingers 7.12502 -0 0
lthumb 57.8729 43.5882 -0.0450311
rclavicle 1.60593e-15 1.82163e-14 -2.68573e-31
rhumerus -9.68443 -28.4095 -18.0764
rradius 74.202 -0 0
rwrist -20.7239 0 0
rhand -51.8494 -61.1201 -0.0275746
rfingers 7.12502 -0 0
rthumb -23.2788 62.9032 -4.88721
213
root 4.69397 15.0662 -25.5855 7.8343 -0.100809 3.93003
lfemur 2.562 -2.14209 3.43198
ltibia 11.6109 -0 0
lfoot -32.2284 -10.7998 -0.0367039
ltoes 48.2671 -0 0
rfemur -32.4358 -20.6162 -5.71291
rtibia 51.5054 -0 0
rfoot -27.548 17.7591 0.00120159
rtoes 60.1155 -0 0
lowerback -1.15601 -2.11331 -0.617757
upperback -0.467649 -2.81211 -6.13203
thorax -0.10552 -1.42365 -6.03109
lowerneck -10.8785 1.32293 6.30129
upperneck 3.15279 0.787953 1.76533
head 2.9523 0.551424 -0.481716
lclavicle 3.59581e-15 2.25977e-14 -5.62482e-31
lhumerus -59.6815 -44.7805 117.021
lradius 55.6988 -0 0
lwrist 26.6248 0 0
lhand 32.2438 27.4234 0.139037
lfingers 7.12502 -0 0
lthumb 55.5978 44.2191 -0.095405
rclavicle 3.59581e-15 2.25977e-14 -5.62482e-31
rhumerus -10.372 -24.4338 -19.6254
rradius 77.7417 -0 0
rwrist -17.8325 0 0
rhand -51.0404 -57.7424 -0.241941
rfingers 7.12502 -0 0
rthumb -21.2942 28.1281 -8.61806
214
root 4.67914 15.0834 -25.607 7.88727 0.101065 3.3972
lfemur 1.30833 -0.903345 4.16716
ltibia 13.554 -0 0
lfoot -30.6437 -11.0408 -0.0566285
ltoes 48.3881 -0 0
rfemur -32.3678 -20.3875 -5.01744
rtibia 51.2536 -0 0
rfoot -27.65 17.4694 0.00115182
rtoes 60.0243 -0 0
lowerback -0.988757 -2.38619 -0.532816
upperback -0.313792 -3.17574 -5.70725
thorax -0.0538859 -1.60182 -5.6282
lowerneck -10.9604 1.62171 6.13505
upperneck 3.11011 1.21474 1.5887
head 2.96305 0.752937 -0.484118
lclavicle 5.95197e-15 2.70255e-14 -7.48692e-31
lhumerus -59.6988 -44.2911 117.129
lradius 55.9965 -0 0
lwrist 27.2966 0 0
lhand 29.348 26.5101 0.181531
lfingers 7.12502 -0 0
lthumb 52.9809 44.9287 -0.126449
rclavicle 5.95197e-15 2.70255e-14 -7.48692e-31
rhumerus -11.1719 -19.2187 -21.3436
rradius 81.4775 -0 0
rwrist -14.4315 0 0
rhand -49.205 -53.3899 -0.508732
rfingers 7.12502 -0 0
rthumb -18.0998 -8.00989 -10.4463
